<?xml version="1.0" standalone="no"?><!DOCTYPE svg PUBLIC "-//W3C//DTD SVG 1.1//EN" "http://www.w3.org/Graphics/SVG/1.1/DTD/svg11.dtd"><svg t="1522042271326" class="icon" style="" viewBox="0 0 1024 1024" version="1.1" xmlns="http://www.w3.org/2000/svg" p-id="3451" xmlns:xlink="http://www.w3.org/1999/xlink" width="128" height="128"><defs><style type="text/css"></style></defs><path d="M511.8976 991.0272c-64.7168 0-127.3856-12.6976-186.4704-37.6832-57.0368-24.1664-108.3392-58.6752-152.2688-102.7072-44.032-44.032-78.5408-95.232-102.7072-152.2688C45.4656 639.2832 32.768 576.512 32.768 511.7952c0-64.7168 12.6976-127.3856 37.6832-186.4704 24.1664-57.0368 58.6752-108.3392 102.7072-152.2688 44.032-44.032 95.232-78.5408 152.2688-102.7072 59.0848-24.9856 121.856-37.6832 186.4704-37.6832 64.7168 0 127.3856 12.6976 186.4704 37.6832 57.0368 24.1664 108.3392 58.6752 152.2688 102.7072 44.032 44.032 78.5408 95.232 102.7072 152.2688 24.9856 59.0848 37.6832 121.856 37.6832 186.4704 0 64.7168-12.6976 127.3856-37.6832 186.4704-24.1664 57.0368-58.6752 108.3392-102.7072 152.2688-44.032 44.032-95.232 78.5408-152.2688 102.7072C639.3856 978.3296 576.6144 991.0272 511.8976 991.0272L511.8976 991.0272zM511.8976 71.3728c-59.4944 0-117.1456 11.6736-171.4176 34.6112-52.4288 22.2208-99.5328 53.9648-139.9808 94.4128-40.448 40.448-72.192 87.552-94.4128 139.9808-22.9376 54.272-34.6112 111.9232-34.6112 171.4176 0 59.4944 11.6736 117.1456 34.6112 171.4176 22.2208 52.4288 53.9648 99.5328 94.4128 139.9808 40.448 40.448 87.552 72.192 139.9808 94.4128 54.272 22.9376 111.9232 34.6112 171.4176 34.6112 59.4944 0 117.1456-11.6736 171.4176-34.6112 52.4288-22.2208 99.5328-53.9648 139.9808-94.4128 40.448-40.448 72.192-87.552 94.4128-139.9808 22.9376-54.272 34.6112-111.9232 34.6112-171.4176 0-59.4944-11.6736-117.1456-34.6112-171.4176-22.2208-52.4288-53.9648-99.5328-94.4128-139.9808-40.448-40.448-87.552-72.192-139.9808-94.4128C629.0432 83.0464 571.392 71.3728 511.8976 71.3728L511.8976 71.3728zM511.8976 71.3728" p-id="3452"></path></svg>